<svg width="23" height="23" viewBox="0 0 23 23" fill="none" xmlns="http://www.w3.org/2000/svg">
<path d="M22.5188 5.72545L17.2748 0.481239C17.1223 0.328668 16.9412 0.207642 16.7419 0.125071C16.5426 0.0424992 16.3289 0 16.1132 0C15.8974 0 15.6838 0.0424992 15.4845 0.125071C15.2852 0.207642 15.1041 0.328668 14.9515 0.481239L0.481098 14.9512C0.328244 15.1035 0.207042 15.2846 0.124474 15.484C0.0419051 15.6834 -0.000397634 15.8971 2.81667e-06 16.1129V21.3571C2.81667e-06 21.7929 0.173079 22.2107 0.481157 22.5188C0.789236 22.8269 1.20708 23 1.64277 23H6.88671C7.1025 23.0004 7.31624 22.9581 7.51561 22.8755C7.71499 22.7929 7.89605 22.6717 8.04838 22.5189L18.1584 12.4083L18.6994 14.5698L14.2874 18.9821C14.2212 19.0473 14.1685 19.125 14.1325 19.2106C14.0964 19.2963 14.0777 19.3883 14.0774 19.4812C14.0771 19.5741 14.0951 19.6662 14.1306 19.7522C14.166 19.8381 14.2181 19.9161 14.2839 19.9818C14.3496 20.0475 14.4278 20.0995 14.5137 20.1348C14.5997 20.1702 14.6918 20.1882 14.7847 20.1877C14.8776 20.1873 14.9696 20.1685 15.0552 20.1323C15.1408 20.0962 15.2184 20.0434 15.2836 19.9772L19.9772 15.2833C20.0632 15.1973 20.1255 15.0905 20.158 14.9733C20.1905 14.8561 20.1921 14.7324 20.1626 14.6144L19.3201 11.2466L22.5188 8.0489C22.6713 7.89635 22.7924 7.71523 22.8749 7.5159C22.9575 7.31657 23 7.10293 23 6.88717C23 6.67142 22.9575 6.45777 22.8749 6.25844C22.7924 6.05911 22.6713 5.878 22.5188 5.72545ZM1.40809 21.3571V17.4249L5.57601 21.5918H1.64277C1.58053 21.5918 1.52083 21.5671 1.47682 21.5231C1.43281 21.4791 1.40809 21.4194 1.40809 21.3571ZM7.2751 21.2996L1.69909 15.7245L11.9687 5.45555L17.5447 11.0307L7.2751 21.2996ZM21.5226 7.05263L18.5398 10.0356L12.9649 4.45928L15.9466 1.47751C15.9683 1.45569 15.9942 1.43838 16.0227 1.42657C16.0512 1.41476 16.0818 1.40868 16.1126 1.40868C16.1434 1.40868 16.174 1.41476 16.2025 1.42657C16.2309 1.43838 16.2568 1.45569 16.2786 1.47751L21.5226 6.72054C21.5444 6.74234 21.5617 6.76822 21.5735 6.79671C21.5853 6.82521 21.5914 6.85574 21.5914 6.88659C21.5914 6.91743 21.5853 6.94797 21.5735 6.97646C21.5617 7.00495 21.5444 7.03084 21.5226 7.05263Z" fill="#666666"/>
</svg>
