<svg width="18" height="18" viewBox="0 0 18 18" fill="none" xmlns="http://www.w3.org/2000/svg">
    <path
        d="M17.6234 4.48078L13.5194 0.376622C13.4001 0.257219 13.2583 0.162502 13.1023 0.0978813C12.9463 0.0332603 12.7792 0 12.6103 0C12.4415 0 12.2743 0.0332603 12.1183 0.0978813C11.9623 0.162502 11.8206 0.257219 11.7012 0.376622L0.376511 11.7009C0.256887 11.8202 0.162033 11.9619 0.0974142 12.1179C0.0327953 12.274 -0.000311191 12.4412 2.20435e-06 12.6101V16.7143C2.20435e-06 17.0553 0.135453 17.3823 0.376558 17.6234C0.617663 17.8645 0.944671 18 1.28564 18H5.3896C5.55848 18.0003 5.72575 17.9672 5.88178 17.9026C6.03782 17.838 6.17952 17.7431 6.29873 17.6235L14.2109 9.71086L14.6343 11.4025L11.1814 14.8555C11.1296 14.9066 11.0884 14.9674 11.0602 15.0344C11.032 15.1015 11.0173 15.1734 11.0171 15.2462C11.0168 15.3189 11.031 15.391 11.0587 15.4582C11.0865 15.5254 11.1272 15.5865 11.1787 15.6379C11.2302 15.6893 11.2913 15.73 11.3586 15.7577C11.4258 15.7854 11.4979 15.7994 11.5706 15.7991C11.6434 15.7987 11.7153 15.784 11.7823 15.7557C11.8493 15.7274 11.9101 15.6862 11.9611 15.6343L15.6343 11.9608C15.7017 11.8936 15.7504 11.81 15.7759 11.7182C15.8013 11.6265 15.8025 11.5297 15.7794 11.4374L15.1201 8.80168L17.6234 6.29914C17.7428 6.17975 17.8375 6.03801 17.9021 5.88201C17.9667 5.72601 18 5.55882 18 5.38996C18 5.22111 17.9667 5.05391 17.9021 4.89791C17.8375 4.74192 17.7428 4.60017 17.6234 4.48078ZM1.10198 16.7143V13.6369L4.36384 16.898H1.28564C1.23693 16.898 1.19022 16.8786 1.15577 16.8442C1.12133 16.8097 1.10198 16.763 1.10198 16.7143ZM5.69356 16.6693L1.32972 12.3062L9.36682 4.26956L13.7307 8.6327L5.69356 16.6693ZM16.8437 5.51945L14.5094 7.85393L10.1465 3.48987L12.4799 1.15631C12.497 1.13923 12.5172 1.12569 12.5395 1.11644C12.5618 1.1072 12.5857 1.10244 12.6099 1.10244C12.634 1.10244 12.6579 1.1072 12.6802 1.11644C12.7025 1.12569 12.7227 1.13923 12.7398 1.15631L16.8437 5.25955C16.8608 5.27661 16.8744 5.29687 16.8836 5.31917C16.8929 5.34147 16.8976 5.36537 16.8976 5.3895C16.8976 5.41364 16.8929 5.43754 16.8836 5.45984C16.8744 5.48214 16.8608 5.50239 16.8437 5.51945Z"
        fill="#666666"/>
</svg>
