<?xml version="1.0" encoding="UTF-8" standalone="no"?>
<svg
   xmlns:dc="http://purl.org/dc/elements/1.1/"
   xmlns:cc="http://creativecommons.org/ns#"
   xmlns:rdf="http://www.w3.org/1999/02/22-rdf-syntax-ns#"
   xmlns:svg="http://www.w3.org/2000/svg"
   xmlns="http://www.w3.org/2000/svg"
   xmlns:sodipodi="http://sodipodi.sourceforge.net/DTD/sodipodi-0.dtd"
   xmlns:inkscape="http://www.inkscape.org/namespaces/inkscape"
   version="1.1"
   id="svg4256"
   width="1000.0001"
   height="289.4798"
   viewBox="0 0 1000 289.48011"
   inkscape:version="1.0.2 (e86c870879, 2021-01-15)"
   sodipodi:docname="Telkomsel_Enterprise.svg">
  <sodipodi:namedview
     pagecolor="#ffffff"
     bordercolor="#666666"
     borderopacity="1"
     objecttolerance="10"
     gridtolerance="10"
     guidetolerance="10"
     inkscape:pageopacity="0"
     inkscape:pageshadow="2"
     inkscape:window-width="1366"
     inkscape:window-height="705"
     id="namedview6"
     showgrid="false"
     inkscape:zoom="0.5"
     inkscape:cx="661.42047"
     inkscape:cy="90.54891"
     inkscape:window-x="-8"
     inkscape:window-y="-8"
     inkscape:window-maximized="1"
     inkscape:current-layer="svg4256"
     showguides="false"
     inkscape:document-rotation="0" />
  <metadata
     id="metadata4264">
    <rdf:RDF>
      <cc:Work
         rdf:about="">
        <dc:format>image/svg+xml</dc:format>
        <dc:type
           rdf:resource="http://purl.org/dc/dcmitype/StillImage" />
        <dc:title />
      </cc:Work>
    </rdf:RDF>
  </metadata>
  <defs
     id="defs4262" />
  <style
     type="text/css"
     id="style2">
	.st0{fill:#FF0025;}
</style>
  <g
     id="g957"
     transform="translate(-1.3803956e-4)">
    <path
       id="path1082"
       style="color:#000000;font-style:normal;font-variant:normal;font-weight:normal;font-stretch:normal;font-size:medium;line-height:normal;font-family:sans-serif;font-variant-ligatures:normal;font-variant-position:normal;font-variant-caps:normal;font-variant-numeric:normal;font-variant-alternates:normal;font-variant-east-asian:normal;font-feature-settings:normal;font-variation-settings:normal;text-indent:0;text-align:start;text-decoration:none;text-decoration-line:none;text-decoration-style:solid;text-decoration-color:#000000;letter-spacing:normal;word-spacing:normal;text-transform:none;writing-mode:lr-tb;direction:ltr;text-orientation:mixed;dominant-baseline:auto;baseline-shift:baseline;text-anchor:start;white-space:normal;shape-padding:0;shape-margin:0;inline-size:0;clip-rule:nonzero;display:inline;overflow:visible;visibility:visible;isolation:auto;mix-blend-mode:normal;color-interpolation:sRGB;color-interpolation-filters:linearRGB;solid-color:#000000;solid-opacity:1;vector-effect:none;fill:#ff0025;fill-opacity:1;fill-rule:evenodd;stroke:none;stroke-width:55.9743;stroke-linecap:butt;stroke-linejoin:miter;stroke-miterlimit:4;stroke-dasharray:none;stroke-dashoffset:0;stroke-opacity:1;paint-order:stroke fill markers;color-rendering:auto;image-rendering:auto;shape-rendering:auto;text-rendering:auto;enable-background:accumulate;stop-color:#000000"
       d="m 483.20698,109.16774 c 0,19.94298 -12.46013,33.39412 -29.63125,33.39412 -17.17114,0 -30.12924,-12.82816 -30.12924,-33.39412 0,-20.565926 12.54271,-33.394958 30.12924,-33.394958 17.58651,0 29.63125,13.451963 29.63125,33.394958 z M 453.57663,47.618518 c -36.84626,-0.05674 -62.65595,26.283762 -62.60578,61.550082 0.0501,35.26632 25.34115,61.81073 62.60578,61.79605 37.26461,-0.0147 62.01981,-26.9276 62.02206,-61.79605 0.003,-34.868442 -25.17584,-61.493383 -62.02206,-61.550082 z"
       sodipodi:nodetypes="zzszzsssss" />
    <path
       id="path1082-3-1-9"
       style="color:#000000;font-style:normal;font-variant:normal;font-weight:normal;font-stretch:normal;font-size:medium;line-height:normal;font-family:sans-serif;font-variant-ligatures:normal;font-variant-position:normal;font-variant-caps:normal;font-variant-numeric:normal;font-variant-alternates:normal;font-variant-east-asian:normal;font-feature-settings:normal;font-variation-settings:normal;text-indent:0;text-align:start;text-decoration:none;text-decoration-line:none;text-decoration-style:solid;text-decoration-color:#000000;letter-spacing:normal;word-spacing:normal;text-transform:none;writing-mode:lr-tb;direction:ltr;text-orientation:mixed;dominant-baseline:auto;baseline-shift:baseline;text-anchor:start;white-space:normal;shape-padding:0;shape-margin:0;inline-size:0;clip-rule:nonzero;display:inline;overflow:visible;visibility:visible;isolation:auto;mix-blend-mode:normal;color-interpolation:sRGB;color-interpolation-filters:linearRGB;solid-color:#000000;solid-opacity:1;vector-effect:none;fill:#ff0025;fill-opacity:1;fill-rule:evenodd;stroke:none;stroke-width:53.5903;stroke-linecap:butt;stroke-linejoin:miter;stroke-miterlimit:4;stroke-dasharray:none;stroke-dashoffset:0;stroke-opacity:1;paint-order:stroke fill markers;color-rendering:auto;image-rendering:auto;shape-rendering:auto;text-rendering:auto;enable-background:accumulate;stop-color:#000000"
       d="m 160.09875,47.618431 c -17.74716,-0.03313 -31.08474,5.46877 -42.52987,16.478824 -11.44512,11.010053 -17.915714,26.090042 -17.889781,46.900515 0.02549,20.81045 8.803811,36.56272 20.195081,45.7601 11.39127,9.19737 25.00503,14.20929 44.17275,14.2068 19.16769,-0.003 33.98548,-6.95603 41.56165,-11.68495 v -28.20415 c -5.25712,4.46029 -21.31417,13.19025 -37.40734,13.19025 -16.09316,0 -32.70944,-5.37505 -36.79594,-25.30091 h 81.45842 c 0.39365,-3.12842 1.11147,-7.83993 1.09484,-12.78782 C 213.90436,90.0864 210.42,79.404757 202.17387,67.965496 193.92775,56.526236 177.84588,47.651534 160.09875,47.618431 Z m -1.53938,24.497924 c 7.50214,0 12.70598,2.371435 16.72032,6.586907 4.01435,4.215481 6.7491,10.500673 7.18741,17.25927 h -50.47729 c 1.37999,-5.918158 2.97379,-10.165967 7.41958,-15.35365 4.44579,-5.18768 11.6477,-8.492527 19.14998,-8.492527 z"
       sodipodi:nodetypes="zzzzzcczccszzzzcczz" />
    <path
       style="display:inline;fill:#ff0025;fill-opacity:1;fill-rule:evenodd;stroke:none;stroke-width:71.7657;stroke-miterlimit:4;stroke-dasharray:none;stroke-opacity:1;paint-order:stroke fill markers"
       d="M 230.26361,1.3472907e-4 V 148.59089 c 0,15.36518 10.9485,22.37408 21.6728,22.37408 10.72429,-1e-5 17.52654,-3.57155 17.52654,-3.57155 0,0 -6.54015,-5.29478 -6.5684,-28.82723 -0.0275,-22.82333 -0.003,-108.632774 0,-118.783594 C 262.89722,9.6317775 256.42083,1.3472907e-4 244.47672,1.3472907e-4 Z"
       id="path1312"
       sodipodi:nodetypes="csscszsc" />
    <path
       id="path1312-7"
       style="display:inline;fill:#ff0025;fill-opacity:1;fill-rule:evenodd;stroke:none;stroke-width:71.7657;stroke-miterlimit:4;stroke-dasharray:none;stroke-opacity:1;paint-order:stroke fill markers"
       d="M -4.1195791e-4,22.370947 V 39.149466 H 47.400518 V 148.59088 c 0,15.36518 10.948496,22.37409 21.672784,22.37409 10.72429,-1e-5 17.526546,-3.57155 17.526546,-3.57155 0,0 -6.54014,-5.29478 -6.568402,-28.82723 -0.02751,-22.82333 -0.0026,-94.790861 0,-104.941683 C 80.03403,23.473693 68.20087,5.1965367 48.730108,5.1965948 l -30.092614,9.16e-5 C 8.7747637,5.1967195 -4.1195791e-4,13.229762 -4.1195791e-4,22.370947 Z M 69.613904,5.1965948 c -0.621651,0 -1.121792,0.5001391 -1.121792,1.1217903 0,0.6216515 0.623598,1.0827906 1.121792,1.4545928 2.064399,1.5406631 8.498578,6.1021741 11.571077,12.3429341 3.072498,6.24076 3.145844,11.904304 5.142127,15.175817 1.996291,3.271504 5.254238,3.857737 8.699961,3.857737 h 24.773541 c 5.47408,0 7.62525,-3.679138 7.62525,-8.042933 V 5.1965948 Z" />
    <path
       id="path1312-2"
       style="display:inline;fill:#ff0025;fill-opacity:1;fill-rule:evenodd;stroke:none;stroke-width:114.058;stroke-miterlimit:4;stroke-dasharray:none;stroke-opacity:1;paint-order:stroke fill markers"
       d="m 284.29134,0 v 169.01198 h 32.63093 c -8.2e-4,-17.53819 5.1e-4,-35.10552 0,-53.43516 7.05268,8.14975 26.32863,30.80779 28.77854,33.65367 8.73833,10.15084 15.00621,19.78149 29.30129,19.78149 h 26.09823 c 0,0 -31.56196,-36.46996 -34.46215,-39.83895 -7.8327,-9.09881 -13.81788,-17.77468 -25.26868,-19.47629 v -1.18347 c 9.86911,-2.2401 15.60559,-10.520724 22.72314,-19.18569 2.76734,-3.368979 32.30949,-39.838961 32.30949,-39.838961 h -36.95438 l -42.52548,51.894961 c 0,0 -0.003,-70.524695 0,-101.38358 z"
       sodipodi:nodetypes="ccccsscsccsccccc" />
    <path
       id="path1312-5-6"
       style="display:inline;fill:#ff0025;fill-opacity:1;fill-rule:evenodd;stroke:none;stroke-width:71.7657;stroke-miterlimit:4;stroke-dasharray:none;stroke-opacity:1;paint-order:stroke fill markers"
       d="m 593.89236,47.618429 c -13.00737,0 -21.58682,5.770653 -25.46293,10.232628 -3.87613,4.461984 -3.24375,5.69124 -4.40694,6.546815 -2.22012,-8.729193 -8.14146,-14.893019 -18.30383,-14.893019 H 531.50557 V 169.01198 h 32.63088 v -61.70492 c 0,-19.355268 8.92366,-31.873817 21.57195,-31.837078 12.64831,0.03675 19.65506,6.483396 19.65506,21.44063 v 72.101368 h 32.6309 v -61.19516 c 0,-17.395154 7.03791,-32.430481 22.07218,-32.346838 15.03424,0.08364 19.82044,9.94145 19.82044,22.854644 v 70.687354 h 32.38256 V 89.733435 c 0,-13.51226 -3.99565,-23.510573 -12.16106,-31.033478 -8.16543,-7.522896 -17.09214,-11.081528 -31.77545,-11.081528 -14.68326,0 -25.06382,6.077638 -33.04486,14.747237 -1.39285,1.512974 -2.70771,3.559112 -3.93355,5.261534 -2.03704,-4.333172 -5.61401,-9.078378 -8.67886,-11.628629 -7.68898,-6.397824 -15.77603,-8.380142 -28.7834,-8.380142 z"
       sodipodi:nodetypes="zzcscccszsccsssccsssscsz" />
    <path
       id="path1082-3-7"
       style="color:#000000;font-style:normal;font-variant:normal;font-weight:normal;font-stretch:normal;font-size:medium;line-height:normal;font-family:sans-serif;font-variant-ligatures:normal;font-variant-position:normal;font-variant-caps:normal;font-variant-numeric:normal;font-variant-alternates:normal;font-variant-east-asian:normal;font-feature-settings:normal;font-variation-settings:normal;text-indent:0;text-align:start;text-decoration:none;text-decoration-line:none;text-decoration-style:solid;text-decoration-color:#000000;letter-spacing:normal;word-spacing:normal;text-transform:none;writing-mode:lr-tb;direction:ltr;text-orientation:mixed;dominant-baseline:auto;baseline-shift:baseline;text-anchor:start;white-space:normal;shape-padding:0;shape-margin:0;inline-size:0;clip-rule:nonzero;display:inline;overflow:visible;visibility:visible;isolation:auto;mix-blend-mode:normal;color-interpolation:sRGB;color-interpolation-filters:linearRGB;solid-color:#000000;solid-opacity:1;vector-effect:none;fill:#ff0025;fill-opacity:1;fill-rule:evenodd;stroke:none;stroke-width:53.5903;stroke-linecap:butt;stroke-linejoin:miter;stroke-miterlimit:4;stroke-dasharray:none;stroke-dashoffset:0;stroke-opacity:1;paint-order:stroke fill markers;color-rendering:auto;image-rendering:auto;shape-rendering:auto;text-rendering:auto;enable-background:accumulate;stop-color:#000000"
       d="m 776.93582,47.618521 c -19.74441,-0.03541 -30.3852,6.134399 -36.38127,11.410997 -5.99609,5.276597 -11.4661,11.961149 -11.51541,26.428545 -0.0491,14.467396 10.542,26.402967 31.43576,32.822577 20.89377,6.41964 29.55558,8.63374 29.48659,15.68749 -0.069,7.05374 -5.27262,11.54448 -19.9645,11.54448 -14.69188,0 -29.53762,-6.52729 -40.23321,-16.18254 v 29.61716 c 7.99179,5.97572 23.44605,12.01525 41.89395,12.01774 18.44789,0.003 29.57793,-4.51125 35.99485,-9.59939 6.41691,-5.08816 13.8005,-13.16099 13.74473,-29.29755 -0.0557,-16.13657 -10.86663,-26.7526 -27.34774,-32.520548 -16.48113,-5.767951 -31.90928,-7.713191 -33.18343,-14.451354 -1.27414,-6.738164 2.55361,-11.298073 14.70095,-12.397934 12.14735,-1.099864 31.87029,5.159506 38.5556,11.783863 V 57.081685 c -6.23338,-3.607241 -17.44249,-9.427723 -37.18687,-9.463164 z"
       sodipodi:nodetypes="zzzzzzcczzzzzzccz" />
    <path
       id="path1082-3-1"
       style="color:#000000;font-style:normal;font-variant:normal;font-weight:normal;font-stretch:normal;font-size:medium;line-height:normal;font-family:sans-serif;font-variant-ligatures:normal;font-variant-position:normal;font-variant-caps:normal;font-variant-numeric:normal;font-variant-alternates:normal;font-variant-east-asian:normal;font-feature-settings:normal;font-variation-settings:normal;text-indent:0;text-align:start;text-decoration:none;text-decoration-line:none;text-decoration-style:solid;text-decoration-color:#000000;letter-spacing:normal;word-spacing:normal;text-transform:none;writing-mode:lr-tb;direction:ltr;text-orientation:mixed;dominant-baseline:auto;baseline-shift:baseline;text-anchor:start;white-space:normal;shape-padding:0;shape-margin:0;inline-size:0;clip-rule:nonzero;display:inline;overflow:visible;visibility:visible;isolation:auto;mix-blend-mode:normal;color-interpolation:sRGB;color-interpolation-filters:linearRGB;solid-color:#000000;solid-opacity:1;vector-effect:none;fill:#ff0025;fill-opacity:1;fill-rule:evenodd;stroke:none;stroke-width:53.5903;stroke-linecap:butt;stroke-linejoin:miter;stroke-miterlimit:4;stroke-dasharray:none;stroke-dashoffset:0;stroke-opacity:1;paint-order:stroke fill markers;color-rendering:auto;image-rendering:auto;shape-rendering:auto;text-rendering:auto;enable-background:accumulate;stop-color:#000000"
       d="m 890.63678,47.618436 c -17.74714,-0.03313 -31.08474,5.468772 -42.52986,16.478826 -11.44512,11.010053 -17.91571,26.090041 -17.88977,46.900508 0.0254,20.81045 8.80379,36.56272 20.19506,45.7601 11.39126,9.19737 25.00502,14.20929 44.17274,14.2068 19.16772,-0.003 33.98549,-6.95603 41.56167,-11.68495 v -28.20415 c -5.25712,4.46029 -21.31417,13.19025 -37.40735,13.19025 -16.09317,0 -32.70944,-5.37505 -36.79594,-25.30091 h 81.45843 c 0.39365,-3.12842 1.11147,-7.83993 1.09485,-12.78781 C 944.44231,90.086407 940.95803,79.404764 932.7119,67.965504 924.46579,56.526242 908.38391,47.65154 890.63678,47.618436 Z m -1.53938,24.497926 c 7.50215,0 12.70599,2.371434 16.72034,6.586906 4.01433,4.215482 6.74908,10.500674 7.18741,17.259272 h -50.47731 c 1.37999,-5.918158 2.9738,-10.165968 7.41958,-15.35365 4.44579,-5.187682 11.64773,-8.492528 19.14998,-8.492528 z"
       sodipodi:nodetypes="zzzzzcczccszzzzcczz" />
    <path
       style="display:inline;fill:#ff0025;fill-opacity:1;fill-rule:evenodd;stroke:none;stroke-width:71.7657;stroke-miterlimit:4;stroke-dasharray:none;stroke-opacity:1;paint-order:stroke fill markers"
       d="M 960.80135,1.3472907e-4 V 148.59089 c 0,15.36518 10.94849,22.37408 21.67282,22.37408 10.7242,-1e-5 17.52653,-3.57155 17.52653,-3.57155 0,0 -6.54022,-5.29478 -6.56848,-28.82723 -0.0277,-22.82333 0,-108.632774 0,-118.783594 0,-10.1508185 -6.4737,-19.78246127093 -18.41777,-19.78246127093 z"
       id="path1312-8"
       sodipodi:nodetypes="csscszsc" />
    <path
       d="m 401.70265,288.46359 h 40.6612 v -5.69257 c 0,-2.23636 -0.81322,-4.06612 -2.23637,-5.3876 -1.42314,-1.21984 -3.4562,-1.93141 -6.09918,-1.93141 H 406.27704 V 258.06935 H 423.863 c 6.20084,0 9.35208,-2.84629 9.35208,-8.64051 v -4.16777 h -26.93804 v -16.97605 h 26.02316 c 3.2529,0 5.59092,-0.71157 7.21737,-2.13472 1.52479,-1.42314 2.33802,-3.55785 2.33802,-6.60744 v -4.26943 h -51.84303 v 63.93974 c 0,3.04959 1.01653,5.28596 3.04959,6.9124 2.03306,1.62645 4.87934,2.33802 8.6405,2.33802 z"
       style="font-weight:bold;font-size:101.653px;font-family:'Telkomsel Batik Sans';-inkscape-font-specification:'Telkomsel Batik Sans Bold';letter-spacing:0.55056px;fill:#001b44;fill-opacity:1;stroke-width:2.66805"
       id="path898" />
    <path
       d="m 453.07969,215.27343 v 64.65131 c 0,3.04959 0.81322,5.28596 2.54132,6.9124 1.7281,1.62645 4.26943,2.33802 7.62398,2.33802 2.33802,0 4.26942,-0.40661 5.69256,-1.32149 v -36.08681 c 0,-6.30249 -0.50826,-12.09671 -1.32148,-17.17936 2.03306,5.69257 4.67603,11.38514 7.82728,17.28101 l 19.41572,36.59508 18.6025,0.10166 v -64.65131 c 0,-2.94794 -0.91488,-5.18431 -2.64298,-6.81075 -1.7281,-1.62645 -4.26943,-2.43968 -7.52232,-2.43968 -2.23637,0 -4.06612,0.50827 -5.69257,1.32149 v 34.66368 c 0,4.87934 0.30496,10.26695 1.11818,16.16282 -1.62644,-4.26942 -4.37108,-10.1653 -8.13224,-17.48431 l -14.12976,-27.0397 c -1.32149,-2.43967 -2.94794,-4.26943 -4.87935,-5.38761 -2.03306,-1.01653 -4.47273,-1.62645 -7.42067,-1.62645 z"
       style="font-weight:bold;font-size:101.653px;font-family:'Telkomsel Batik Sans';-inkscape-font-specification:'Telkomsel Batik Sans Bold';letter-spacing:0.55056px;fill:#001b44;fill-opacity:1;stroke-width:2.66805"
       id="path900" />
    <path
       d="m 522.34762,215.27343 v 4.37108 c 0,2.84629 0.71157,4.981 2.33802,6.50579 1.62645,1.5248 3.86281,2.23637 6.9124,2.23637 h 12.09671 v 51.53807 c 0,3.04959 0.81322,5.28596 2.43967,6.9124 1.62645,1.62645 4.06612,2.33802 7.21736,2.33802 1.11819,0 2.33802,-0.10165 3.55786,-0.30496 1.21983,-0.2033 2.23636,-0.60991 3.04959,-1.01653 v -59.467 h 21.34713 v -4.37108 c 0,-2.74463 -0.81323,-4.87934 -2.43967,-6.40414 -1.62645,-1.52479 -3.86282,-2.33802 -6.81075,-2.33802 z"
       style="font-weight:bold;font-size:101.653px;font-family:'Telkomsel Batik Sans';-inkscape-font-specification:'Telkomsel Batik Sans Bold';letter-spacing:0.55056px;fill:#001b44;fill-opacity:1;stroke-width:2.66805"
       id="path902" />
    <path
       d="m 601.88255,288.46359 h 40.6612 v -5.69257 c 0,-2.23636 -0.81322,-4.06612 -2.23636,-5.3876 -1.42315,-1.21984 -3.45621,-1.93141 -6.09918,-1.93141 h -27.75127 v -17.38266 h 17.58597 c 6.20083,0 9.35207,-2.84629 9.35207,-8.64051 v -4.16777 h -26.93804 v -16.97605 h 26.02316 c 3.2529,0 5.59092,-0.71157 7.21737,-2.13472 1.52479,-1.42314 2.33802,-3.55785 2.33802,-6.60744 v -4.26943 h -51.84303 v 63.93974 c 0,3.04959 1.01653,5.28596 3.04959,6.9124 2.03306,1.62645 4.87934,2.33802 8.6405,2.33802 z"
       style="font-weight:bold;font-size:101.653px;font-family:'Telkomsel Batik Sans';-inkscape-font-specification:'Telkomsel Batik Sans Bold';letter-spacing:0.55056px;fill:#001b44;fill-opacity:1;stroke-width:2.66805"
       id="path904" />
    <path
       d="m 655.69924,286.73549 c 1.62644,1.62645 4.06612,2.33802 7.21736,2.33802 2.54132,0 4.77769,-0.40661 6.60744,-1.21984 v -27.34465 h 9.962 l 8.13224,21.34713 c 0.91488,2.64298 2.13471,4.47273 3.76116,5.59091 1.52479,1.11819 3.65951,1.62645 6.40414,1.62645 1.82975,0 3.65951,-0.30496 5.38761,-1.01653 1.62645,-0.60992 3.04959,-1.52479 4.26942,-2.74463 l -13.51985,-27.34466 c 4.47274,-1.52479 8.03059,-4.06612 10.67357,-7.72563 2.64298,-3.55785 3.96447,-7.72562 3.96447,-12.60497 0,-7.11571 -2.13472,-12.70662 -6.40414,-16.56944 -4.26943,-3.86281 -10.26696,-5.79422 -18.09424,-5.79422 h -30.80086 v 64.65131 c 0,3.04959 0.81323,5.28596 2.43968,6.81075 z m 25.81986,-38.9331 h -11.99506 v -19.61903 h 11.99506 c 3.4562,0 6.09918,0.91488 7.92893,2.54133 1.82976,1.7281 2.84629,4.16777 2.84629,7.31901 0,3.15125 -1.01653,5.59092 -2.84629,7.21737 -1.82975,1.7281 -4.47273,2.54132 -7.92893,2.54132 z"
       style="font-weight:bold;font-size:101.653px;font-family:'Telkomsel Batik Sans';-inkscape-font-specification:'Telkomsel Batik Sans Bold';letter-spacing:0.55056px;fill:#001b44;fill-opacity:1;stroke-width:2.66805"
       id="path906" />
    <path
       d="m 722.32424,286.83714 c 1.62644,1.62645 4.06612,2.33802 7.21736,2.33802 2.64298,0 4.77769,-0.40661 6.60744,-1.32149 v -25.92151 h 13.31655 c 7.62397,0 13.6215,-2.03306 17.99258,-6.20083 4.26942,-4.06612 6.50579,-9.75869 6.50579,-17.07771 0,-7.21736 -2.23637,-12.90993 -6.60744,-17.0777 -4.37108,-4.16777 -10.36861,-6.30249 -17.89093,-6.30249 h -29.58103 v 64.65131 c 0,3.04959 0.81323,5.28596 2.43968,6.9124 z m 25.61655,-37.81491 h -11.79175 v -20.83887 h 10.77522 c 3.35455,0 5.99753,0.91488 7.92894,2.74463 1.82975,1.82976 2.84628,4.37108 2.84628,7.62398 0,3.35455 -0.91488,5.89587 -2.64298,7.72563 -1.82975,1.82975 -4.16777,2.74463 -7.11571,2.74463 z"
       style="font-weight:bold;font-size:101.653px;font-family:'Telkomsel Batik Sans';-inkscape-font-specification:'Telkomsel Batik Sans Bold';letter-spacing:0.55056px;fill:#001b44;fill-opacity:1;stroke-width:2.66805"
       id="path908" />
    <path
       d="m 787.11946,286.73549 c 1.62645,1.62645 4.06612,2.33802 7.21737,2.33802 2.54132,0 4.77769,-0.40661 6.60744,-1.21984 v -27.34465 h 9.962 l 8.13224,21.34713 c 0.91487,2.64298 2.13471,4.47273 3.76116,5.59091 1.52479,1.11819 3.6595,1.62645 6.40414,1.62645 1.82975,0 3.6595,-0.30496 5.3876,-1.01653 1.62645,-0.60992 3.04959,-1.52479 4.26943,-2.74463 l -13.51985,-27.34466 c 4.47273,-1.52479 8.03059,-4.06612 10.67357,-7.72563 2.64297,-3.55785 3.96446,-7.72562 3.96446,-12.60497 0,-7.11571 -2.13471,-12.70662 -6.40414,-16.56944 -4.26942,-3.86281 -10.26695,-5.79422 -18.09423,-5.79422 h -30.80086 v 64.65131 c 0,3.04959 0.81323,5.28596 2.43967,6.81075 z m 25.81987,-38.9331 h -11.99506 v -19.61903 h 11.99506 c 3.4562,0 6.09918,0.91488 7.92893,2.54133 1.82975,1.7281 2.84628,4.16777 2.84628,7.31901 0,3.15125 -1.01653,5.59092 -2.84628,7.21737 -1.82975,1.7281 -4.47273,2.54132 -7.92893,2.54132 z"
       style="font-weight:bold;font-size:101.653px;font-family:'Telkomsel Batik Sans';-inkscape-font-specification:'Telkomsel Batik Sans Bold';letter-spacing:0.55056px;fill:#001b44;fill-opacity:1;stroke-width:2.66805"
       id="path910" />
    <path
       d="m 851.30476,215.985 v 63.93974 c 0,3.04959 0.81323,5.28596 2.43967,6.9124 1.62645,1.62645 4.06612,2.33802 7.21737,2.33802 1.11818,0 2.33802,-0.10165 3.55785,-0.30496 1.21984,-0.2033 2.23637,-0.60991 3.04959,-1.01653 v -63.93973 c 0,-2.94794 -0.91488,-5.18431 -2.54132,-6.81075 -1.62645,-1.62645 -4.06612,-2.43968 -7.11571,-2.43968 -1.21984,0 -2.33802,0.20331 -3.55786,0.40662 -1.21983,0.2033 -2.23636,0.50826 -3.04959,0.91487 z"
       style="font-weight:bold;font-size:101.653px;font-family:'Telkomsel Batik Sans';-inkscape-font-specification:'Telkomsel Batik Sans Bold';letter-spacing:0.55056px;fill:#001b44;fill-opacity:1;stroke-width:2.66805"
       id="path912" />
    <path
       d="m 882.14788,269.86109 c -1.42314,1.32149 -2.13471,2.84629 -2.13471,4.67604 0,2.84629 1.01653,5.48926 3.15124,7.72563 2.03306,2.23637 5.08265,4.06612 8.94547,5.28596 3.86281,1.32148 8.4372,1.9314 13.6215,1.9314 5.69257,0 10.67356,-0.91487 15.1463,-2.84628 4.47273,-1.82976 7.92893,-4.47273 10.3686,-7.92894 2.43967,-3.4562 3.65951,-7.42066 3.65951,-11.8934 0,-3.6595 -0.60992,-6.81075 -1.7281,-9.65703 -1.11818,-2.84629 -3.2529,-5.28596 -6.40414,-7.52232 -3.15124,-2.13472 -7.52232,-3.86282 -13.21489,-5.18431 -4.26943,-0.91487 -7.52232,-1.82975 -9.65704,-2.64297 -2.13471,-0.81323 -3.6595,-1.82976 -4.47273,-3.04959 -0.91487,-1.11819 -1.32149,-2.64298 -1.32149,-4.57439 0,-2.23637 0.91488,-4.06612 2.74463,-5.48926 1.82976,-1.42314 4.37108,-2.23637 7.82729,-2.23637 3.6595,0 7.01405,0.91488 10.06364,2.74463 3.04959,1.82976 5.08265,4.26943 6.09918,7.52233 2.64298,-0.50827 4.67604,-1.42315 6.09918,-2.84629 1.42314,-1.32149 2.13472,-2.94794 2.13472,-4.77769 0,-2.74463 -1.01653,-5.28596 -3.04959,-7.52232 -2.03306,-2.23637 -4.981,-4.06612 -8.64051,-5.38761 -3.65951,-1.21984 -7.92893,-1.93141 -12.70662,-1.93141 -5.48927,0 -10.1653,0.91488 -14.23142,2.64298 -4.06612,1.7281 -7.21737,4.16777 -9.45373,7.31902 -2.23637,3.25289 -3.35455,7.01405 -3.35455,11.28348 0,5.69257 1.7281,10.47026 5.1843,14.12977 3.4562,3.76116 9.14877,6.50579 17.0777,8.33554 3.65951,0.81323 6.30249,1.5248 8.13224,2.13472 1.72811,0.60991 3.15125,1.62644 4.37108,2.84628 1.21984,1.21984 1.82976,3.04959 1.82976,5.28596 0,2.84628 -1.11819,5.08265 -3.15125,6.60744 -2.13471,1.62645 -5.28595,2.33802 -9.35207,2.33802 -3.96447,0 -7.52232,-0.81322 -10.67357,-2.64298 -3.25289,-1.82975 -5.48926,-4.26942 -6.70909,-7.52232 -2.74464,0.60992 -4.7777,1.52479 -6.20084,2.84628 z"
       style="font-weight:bold;font-size:101.653px;font-family:'Telkomsel Batik Sans';-inkscape-font-specification:'Telkomsel Batik Sans Bold';letter-spacing:0.55056px;fill:#001b44;fill-opacity:1;stroke-width:2.66805"
       id="path914" />
    <path
       d="m 958.8365,288.46359 h 40.6612 v -5.69257 c 0,-2.23636 -0.81322,-4.06612 -2.23637,-5.3876 -1.42314,-1.21984 -3.4562,-1.93141 -6.09918,-1.93141 h -27.75126 v -17.38266 h 17.58596 c 6.20084,0 9.35208,-2.84629 9.35208,-8.64051 v -4.16777 h -26.93804 v -16.97605 h 26.02316 c 3.2529,0 5.59092,-0.71157 7.21737,-2.13472 1.52479,-1.42314 2.33802,-3.55785 2.33802,-6.60744 v -4.26943 h -51.84303 v 63.93974 c 0,3.04959 1.01653,5.28596 3.04959,6.9124 2.03306,1.62645 4.87934,2.33802 8.6405,2.33802 z"
       style="font-weight:bold;font-size:101.653px;font-family:'Telkomsel Batik Sans';-inkscape-font-specification:'Telkomsel Batik Sans Bold';letter-spacing:0.55056px;fill:#001b44;fill-opacity:1;stroke-width:2.66805"
       id="path916" />
  </g>
</svg>
